<svg viewBox="0 0 29 29" fill="none" xmlns="http://www.w3.org/2000/svg">
<path fill-rule="evenodd" clip-rule="evenodd" d="M9.16807 12.3082L14.5018 6.9768L19.8377 12.3125L22.9394 9.20869L14.5018 0.769165L6.06415 9.20652L9.16807 12.3082ZM0.769531 14.5004L3.87231 11.3977L6.9751 14.5004L3.87231 17.6031L0.769531 14.5004ZM14.5061 22.0251L9.17241 16.6916L6.06415 19.7911L6.06849 19.7954L14.5061 28.2306L22.9437 19.7911L22.9459 19.7889L19.842 16.6894L14.5061 22.0251ZM22.0246 14.5011L25.1274 11.3984L28.2302 14.5011L25.1274 17.6038L22.0246 14.5011ZM14.5027 11.3495L17.65 14.4989H17.6522L17.65 14.5011L14.5027 17.6505L11.3554 14.5054L11.3511 14.4989L11.3554 14.4946L11.9064 13.9437L12.1754 13.6769L14.5027 11.3495Z" fill="#F3BA2F"/>
</svg>
