<svg viewBox="0 0 18 23" fill="none" xmlns="http://www.w3.org/2000/svg">
<path fill-rule="evenodd" clip-rule="evenodd" d="M17.1826 9.53756C17.5265 7.23574 15.7739 5.99833 13.3774 5.17285L14.1548 2.05474L12.2563 1.58172L11.4994 4.61767C11.001 4.49333 10.4885 4.37602 9.97931 4.2598L10.7415 1.20385L8.84461 0.730835L8.06671 3.84787C7.6537 3.75381 7.24826 3.66082 6.85471 3.56298L6.85687 3.55325L4.23934 2.89968L3.73443 4.92688C3.73443 4.92688 5.14266 5.24961 5.11293 5.26962C5.88165 5.46152 6.02112 5.97022 5.99733 6.3735L5.11185 9.9257C5.16483 9.93922 5.23348 9.95868 5.30916 9.98895L5.10915 9.93922L3.86742 14.9153C3.77335 15.1489 3.53495 15.4992 2.99761 15.3662C3.01653 15.3938 1.61803 15.0218 1.61803 15.0218L0.675781 17.195L3.14627 17.8107C3.42516 17.8806 3.70066 17.9525 3.97314 18.0236L3.9737 18.0237C4.14997 18.0697 4.32498 18.1154 4.49882 18.1599L3.71335 21.3143L5.60919 21.7873L6.38764 18.667C6.90498 18.8076 7.40773 18.9373 7.89966 19.0595L7.12446 22.1652L9.02247 22.6382L9.80794 19.4903C13.0444 20.1028 15.4787 19.8558 16.502 16.929C17.3275 14.5721 16.4615 13.2125 14.7587 12.3254C15.9988 12.0383 16.9329 11.2226 17.1821 9.53756H17.1826ZM12.8469 15.6185C12.3081 17.7818 8.92135 16.8867 7.37314 16.4775C7.23449 16.4409 7.1106 16.4081 7.00481 16.3818L8.04706 12.2036C8.17636 12.2359 8.33433 12.2713 8.51327 12.3115L8.5133 12.3115C10.115 12.6709 13.3974 13.4075 12.8475 15.6185H12.8469ZM8.83385 10.3729C10.1257 10.7175 12.9416 11.4687 13.4321 9.5036C13.9336 7.4932 11.1955 6.88725 9.85818 6.59132C9.70785 6.55805 9.57522 6.5287 9.46688 6.50171L8.52193 10.2912C8.61135 10.3135 8.71629 10.3415 8.83385 10.3729Z" fill="#F7931A"/>
</svg>
