<svg viewBox="0 0 25 22" fill="none" xmlns="http://www.w3.org/2000/svg">
<path fill-rule="evenodd" clip-rule="evenodd" d="M11.9178 0.272095H4.95523V9.51926H0.710938V12.6017H4.95523V21.849H11.9178C15.5928 21.849 16.3847 21.4641 17.9684 20.6944C18.0914 20.6346 18.2191 20.5726 18.3533 20.5082C20.2164 19.6143 21.6642 18.3556 22.6969 16.7322C23.7296 15.1088 24.2459 13.2183 24.2459 11.0606C24.2459 8.90285 23.7296 7.01232 22.6969 5.38891C21.6642 3.76549 20.2164 2.50685 18.3533 1.61295C16.4902 0.719041 14.3451 0.272095 11.9178 0.272095ZM10.1273 12.6017V17.7493H11.6603C13.896 17.7493 15.6792 17.1483 17.0099 15.9461C18.3407 14.744 19.0061 13.1154 19.0061 11.0605C19.0061 9.00553 18.3407 7.37701 17.0099 6.17486C15.6792 4.97271 13.896 4.37164 11.6603 4.37164H10.1273V9.51926H15.0831V12.6017H10.1273Z" fill="#C2A633"/>
</svg>
