<svg width="23" height="18" viewBox="0 0 23 18" fill="none" xmlns="http://www.w3.org/2000/svg">
<g clip-path="url(#clip0_2717_1437)">
<path d="M3.62341 13.3397C3.75798 13.2051 3.94302 13.1266 4.13927 13.1266H21.9366C22.2619 13.1266 22.4245 13.5191 22.1946 13.749L18.6788 17.2647C18.5443 17.3993 18.3592 17.4778 18.163 17.4778H0.365601C0.040381 17.4778 -0.122229 17.0853 0.107668 16.8554L3.62341 13.3397Z" fill="url(#paint0_linear_2717_1437)"/>
<path d="M3.62341 0.213075C3.76359 0.0785013 3.94863 0 4.13927 0H21.9366C22.2619 0 22.4245 0.392507 22.1946 0.622404L18.6788 4.13814C18.5443 4.27272 18.3592 4.35122 18.163 4.35122H0.365601C0.040381 4.35122 -0.122229 3.95871 0.107668 3.72881L3.62341 0.213075Z" fill="url(#paint1_linear_2717_1437)"/>
<path d="M18.6788 6.73432C18.5443 6.59974 18.3592 6.52124 18.163 6.52124H0.365601C0.040381 6.52124 -0.122229 6.91375 0.107668 7.14364L3.62341 10.6594C3.75798 10.794 3.94302 10.8725 4.13927 10.8725H21.9366C22.2619 10.8725 22.4245 10.48 22.1946 10.2501L18.6788 6.73432Z" fill="url(#paint2_linear_2717_1437)"/>
</g>
<defs>
<linearGradient id="paint0_linear_2717_1437" x1="20.2365" y1="-2.10017" x2="7.91928" y2="21.4922" gradientUnits="userSpaceOnUse">
<stop stop-color="#00FFA3"/>
<stop offset="1" stop-color="#DC1FFF"/>
</linearGradient>
<linearGradient id="paint1_linear_2717_1437" x1="14.8507" y1="-4.91202" x2="2.53353" y2="18.6804" gradientUnits="userSpaceOnUse">
<stop stop-color="#00FFA3"/>
<stop offset="1" stop-color="#DC1FFF"/>
</linearGradient>
<linearGradient id="paint2_linear_2717_1437" x1="17.5265" y1="-3.51504" x2="5.20926" y2="20.0774" gradientUnits="userSpaceOnUse">
<stop stop-color="#00FFA3"/>
<stop offset="1" stop-color="#DC1FFF"/>
</linearGradient>
<clipPath id="clip0_2717_1437">
<rect width="22.3" height="17.4778" fill="white"/>
</clipPath>
</defs>
</svg>
