<svg viewBox="0 0 22 19" fill="none" xmlns="http://www.w3.org/2000/svg">
<path d="M18.776 0.171875H21.9557L15.3385 6.72375C12.9421 9.09519 9.05691 9.09519 6.65883 6.72375L0.0390625 0.171875H3.22133L8.24867 5.14895C8.98115 5.87087 9.96829 6.27556 10.9967 6.27556C12.0252 6.27556 13.0123 5.87087 13.7448 5.14895L18.776 0.171875Z" fill="white"/>
<path d="M3.18184 18.3906H0L6.66016 11.7984C9.05652 9.42691 12.9418 9.42691 15.3398 11.7984L22 18.3906H18.8203L13.75 13.3732C13.0175 12.6512 12.0304 12.2465 11.0019 12.2465C9.97349 12.2465 8.98635 12.6512 8.25387 13.3732L3.18184 18.3906Z" fill="white"/>
</svg>
